<?xml version="1.0" encoding="UTF-8" standalone="no"?>
<!DOCTYPE svg PUBLIC "-//W3C//DTD SVG 1.0//EN" "http://www.w3.org/TR/2001/PR-SVG-20010719/DTD/svg10.dtd">
<svg width="69cm" height="49cm" viewBox="97 30 1371 972" xmlns="http://www.w3.org/2000/svg" xmlns:xlink="http://www.w3.org/1999/xlink">
  <ellipse style="fill: #000000" cx="465" cy="41" rx="10" ry="10"/>
  <g>
    <polygon style="fill: #ffffff" points="411,391 431,371 451,391 431,411 "/>
    <polygon style="fill: none; fill-opacity:0; stroke-width: 2; stroke: #000000" points="411,391 431,371 451,391 431,411 "/>
  </g>
  <g>
    <polyline style="fill: none; fill-opacity:0; stroke-width: 2; stroke: #000000" points="465,51 465,95.5 463.95,95.5 463.95,135.528 "/>
    <polyline style="fill: none; fill-opacity:0; stroke-width: 2; stroke: #000000" points="458.95,127.764 463.95,137.764 468.95,127.764 "/>
    <text style="fill: #000000;text-anchor:middle;font-size:12.7998;font-family:sanserif;font-style:normal;font-weight:normal" x="564.976" y="84.4974">gfal_access(file,perms)</text>
  </g>
  <g>
    <rect style="fill: #ffffff" x="361" y="287" width="125" height="36" rx="20" ry="20"/>
    <rect style="fill: none; fill-opacity:0; stroke-width: 2; stroke: #000000" x="361" y="287" width="125" height="36" rx="20" ry="20"/>
    <text style="fill: #000000;text-anchor:middle;font-size:12.8;font-family:sanserif;font-style:normal;font-weight:normal" x="423.5" y="308.9">
      <tspan x="423.5" y="308.9">Check PATH URL</tspan>
    </text>
  </g>
  <g>
    <rect style="fill: #ffffff" x="98" y="465" width="246.7" height="36" rx="20" ry="20"/>
    <rect style="fill: none; fill-opacity:0; stroke-width: 2; stroke: #000000" x="98" y="465" width="246.7" height="36" rx="20" ry="20"/>
    <text style="fill: #000000;text-anchor:middle;font-size:12.8;font-family:sanserif;font-style:normal;font-weight:normal" x="221.35" y="486.9">
      <tspan x="221.35" y="486.9">Map to the Unix System call access</tspan>
    </text>
  </g>
  <g>
    <polyline style="fill: none; fill-opacity:0; stroke-width: 2; stroke: #000000" points="411,391 221.35,391 221.35,460.528 "/>
    <polyline style="fill: none; fill-opacity:0; stroke-width: 2; stroke: #000000" points="216.35,452.764 221.35,462.764 226.35,452.764 "/>
    <text style="fill: #000000;text-anchor:middle;font-size:12.7998;font-family:sanserif;font-style:normal;font-weight:normal" x="253" y="377">{file:// url }</text>
  </g>
  <g>
    <polyline style="fill: none; fill-opacity:0; stroke-width: 2; stroke: #000000" points="451,391 907.604,391 907.604,419.528 "/>
    <polyline style="fill: none; fill-opacity:0; stroke-width: 2; stroke: #000000" points="902.604,411.764 907.604,421.764 912.604,411.764 "/>
    <text style="fill: #000000;text-anchor:middle;font-size:12.7998;font-family:sanserif;font-style:normal;font-weight:normal" x="703.478" y="367">{else}</text>
  </g>
  <ellipse style="fill: #000000" cx="507" cy="901" rx="10" ry="10"/>
  <g>
    <polyline style="fill: none; fill-opacity:0; stroke-width: 2; stroke: #000000" points="221.35,501 220,501 220,821.5 252.528,821.5 "/>
    <polyline style="fill: none; fill-opacity:0; stroke-width: 2; stroke: #000000" points="244.764,826.5 254.764,821.5 244.764,816.5 "/>
  </g>
  <g>
    <rect style="fill: #ffffff" x="1340" y="605" width="94.35" height="36" rx="20" ry="20"/>
    <rect style="fill: none; fill-opacity:0; stroke-width: 2; stroke: #000000" x="1340" y="605" width="94.35" height="36" rx="20" ry="20"/>
    <text style="fill: #000000;text-anchor:middle;font-size:12.8;font-family:sanserif;font-style:normal;font-weight:normal" x="1387.17" y="626.9">
      <tspan x="1387.17" y="626.9">report Error</tspan>
    </text>
  </g>
  <g>
    <polyline style="fill: none; fill-opacity:0; stroke-width: 2; stroke: #000000" points="422,319 422,345 431,345 431,366.528 "/>
    <polyline style="fill: none; fill-opacity:0; stroke-width: 2; stroke: #000000" points="426,358.764 431,368.764 436,358.764 "/>
  </g>
  <g>
    <polygon style="fill: #ffffff" points="444,225 464,205 484,225 464,245 "/>
    <polygon style="fill: none; fill-opacity:0; stroke-width: 2; stroke: #000000" points="444,225 464,205 484,225 464,245 "/>
  </g>
  <g>
    <polyline style="fill: none; fill-opacity:0; stroke-width: 2; stroke: #000000" points="464,245 464,266 423.5,266 423.5,282.528 "/>
    <polyline style="fill: none; fill-opacity:0; stroke-width: 2; stroke: #000000" points="418.5,274.764 423.5,284.764 428.5,274.764 "/>
    <text style="fill: #000000;text-anchor:middle;font-size:12.7998;font-family:sanserif;font-style:normal;font-weight:normal" x="381" y="255.5">{ mode OK}</text>
  </g>
  <g>
    <rect style="fill: #ffffff" x="400" y="140" width="127.9" height="36" rx="20" ry="20"/>
    <rect style="fill: none; fill-opacity:0; stroke-width: 2; stroke: #000000" x="400" y="140" width="127.9" height="36" rx="20" ry="20"/>
    <text style="fill: #000000;text-anchor:middle;font-size:12.8;font-family:sanserif;font-style:normal;font-weight:normal" x="463.95" y="161.9">
      <tspan x="463.95" y="161.9">Check mode flag</tspan>
    </text>
  </g>
  <g>
    <polyline style="fill: none; fill-opacity:0; stroke-width: 2; stroke: #000000" points="463.95,176 463.95,190.5 464,190.5 464,200.528 "/>
    <polyline style="fill: none; fill-opacity:0; stroke-width: 2; stroke: #000000" points="459,192.764 464,202.764 469,192.764 "/>
  </g>
  <g>
    <polyline style="fill: none; fill-opacity:0; stroke-width: 2; stroke: #000000" points="483,221 483,222.5 1387.18,222.5 1387.18,600.528 "/>
    <polyline style="fill: none; fill-opacity:0; stroke-width: 2; stroke: #000000" points="1382.18,592.764 1387.18,602.764 1392.18,592.764 "/>
    <text style="fill: #000000;text-anchor:middle;font-size:12.7998;font-family:sanserif;font-style:normal;font-weight:normal" x="930.5" y="198.5">{ mode Incorrect}</text>
  </g>
  <ellipse style="fill: #000000" cx="1367.35" cy="970" rx="10" ry="10"/>
  <g>
    <polyline style="fill: none; fill-opacity:0; stroke-width: 2; stroke: #000000" points="1387.18,641 1387.18,743.5 1367.35,743.5 1367.35,954.551 "/>
    <polyline style="fill: none; fill-opacity:0; stroke-width: 2; stroke: #000000" points="1362.35,946.787 1367.35,956.787 1372.35,946.787 "/>
  </g>
  <g>
    <rect style="fill: #ffffff" x="835.354" y="424" width="144.5" height="36" rx="20" ry="20"/>
    <rect style="fill: none; fill-opacity:0; stroke-width: 2; stroke: #000000" x="835.354" y="424" width="144.5" height="36" rx="20" ry="20"/>
    <text style="fill: #000000;text-anchor:middle;font-size:12.8;font-family:sanserif;font-style:normal;font-weight:normal" x="907.604" y="445.9">
      <tspan x="907.604" y="445.9">Check ALL catalogs</tspan>
    </text>
  </g>
  <g>
    <polygon style="fill: #ffffff" points="883,539 903,519 923,539 903,559 "/>
    <polygon style="fill: none; fill-opacity:0; stroke-width: 2; stroke: #000000" points="883,539 903,519 923,539 903,559 "/>
  </g>
  <g>
    <polyline style="fill: none; fill-opacity:0; stroke-width: 2; stroke: #000000" points="903,457 903,457 903,514.528 "/>
    <polyline style="fill: none; fill-opacity:0; stroke-width: 2; stroke: #000000" points="898,506.764 903,516.764 908,506.764 "/>
  </g>
  <g>
    <polyline style="fill: none; fill-opacity:0; stroke-width: 2; stroke: #000000" points="883,539 851.725,539 851.725,512 824.922,512 "/>
    <polyline style="fill: none; fill-opacity:0; stroke-width: 2; stroke: #000000" points="832.686,507 822.686,512 832.686,517 "/>
  </g>
  <g>
    <polygon style="fill: #ffffff" points="477,929 536.9,929 548.9,941 548.9,963 477,963 "/>
    <polygon style="fill: none; fill-opacity:0; stroke-width: 2; stroke: #000000" points="477,929 536.9,929 548.9,941 548.9,963 477,963 "/>
    <polyline style="fill: none; fill-opacity:0; stroke-width: 1; stroke: #000000" points="536.9,929 536.9,941 548.9,941 "/>
    <text style="fill: #000000;text-anchor:start;font-size:12.8;font-family:monospace;font-style:normal;font-weight:normal" x="484" y="953.9">
      <tspan x="484" y="953.9">Success</tspan>
    </text>
  </g>
  <g>
    <rect style="fill: #ffffff" x="518" y="494" width="302.45" height="36" rx="20" ry="20"/>
    <rect style="fill: none; fill-opacity:0; stroke-width: 2; stroke: #000000" x="518" y="494" width="302.45" height="36" rx="20" ry="20"/>
    <text style="fill: #000000;text-anchor:middle;font-size:12.8;font-family:sanserif;font-style:normal;font-weight:normal" x="669.225" y="515.9">
      <tspan x="669.225" y="515.9">Execute Request on the appropriate catalog</tspan>
    </text>
  </g>
  <g>
    <polygon style="fill: #ffffff" points="614,629 634,609 654,629 634,649 "/>
    <polygon style="fill: none; fill-opacity:0; stroke-width: 2; stroke: #000000" points="614,629 634,609 654,629 634,649 "/>
  </g>
  <g>
    <polyline style="fill: none; fill-opacity:0; stroke-width: 2; stroke: #000000" points="669.225,530 669.225,569.5 634,569.5 634,604.528 "/>
    <polyline style="fill: none; fill-opacity:0; stroke-width: 2; stroke: #000000" points="629,596.764 634,606.764 639,596.764 "/>
  </g>
  <g>
    <polyline style="fill: none; fill-opacity:0; stroke-width: 2; stroke: #000000" points="614,629 308.35,629 308.35,799.028 "/>
    <polyline style="fill: none; fill-opacity:0; stroke-width: 2; stroke: #000000" points="303.35,791.264 308.35,801.264 313.35,791.264 "/>
    <text style="fill: #000000;text-anchor:middle;font-size:12.7998;font-family:sanserif;font-style:normal;font-weight:normal" x="451.176" y="599">{ end with result}</text>
  </g>
  <g>
    <rect style="fill: #ffffff" x="257" y="803.5" width="102.7" height="36" rx="20" ry="20"/>
    <rect style="fill: none; fill-opacity:0; stroke-width: 2; stroke: #000000" x="257" y="803.5" width="102.7" height="36" rx="20" ry="20"/>
    <text style="fill: #000000;text-anchor:middle;font-size:12.8;font-family:sanserif;font-style:normal;font-weight:normal" x="308.35" y="825.4">
      <tspan x="308.35" y="825.4">Return result</tspan>
    </text>
  </g>
  <g>
    <polyline style="fill: none; fill-opacity:0; stroke-width: 2; stroke: #000000" points="308.35,839.5 308.35,901 492.528,901 "/>
    <polyline style="fill: none; fill-opacity:0; stroke-width: 2; stroke: #000000" points="484.764,906 494.764,901 484.764,896 "/>
  </g>
  <g>
    <polyline style="fill: none; fill-opacity:0; stroke-width: 2; stroke: #000000" points="654,629 997,629 997,623 1335.53,623 "/>
    <polyline style="fill: none; fill-opacity:0; stroke-width: 2; stroke: #000000" points="1327.76,628 1337.76,623 1327.76,618 "/>
    <text style="fill: #000000;text-anchor:middle;font-size:12.7998;font-family:sanserif;font-style:normal;font-weight:normal" x="987" y="596">{ error reported }</text>
  </g>
  <g>
    <polyline style="fill: none; fill-opacity:0; stroke-width: 2; stroke: #000000" points="903,559 903,650.25 909.575,650.25 909.575,737.028 "/>
    <polyline style="fill: none; fill-opacity:0; stroke-width: 2; stroke: #000000" points="904.575,729.264 909.575,739.264 914.575,729.264 "/>
    <text style="fill: #000000;text-anchor:middle;font-size:12.7998;font-family:sanserif;font-style:normal;font-weight:normal" x="985.788" y="701.5">{ not a URL catalog }</text>
  </g>
  <g>
    <rect style="fill: #ffffff" x="830" y="741.5" width="159.15" height="36" rx="20" ry="20"/>
    <rect style="fill: none; fill-opacity:0; stroke-width: 2; stroke: #000000" x="830" y="741.5" width="159.15" height="36" rx="20" ry="20"/>
    <text style="fill: #000000;text-anchor:middle;font-size:12.8;font-family:sanserif;font-style:normal;font-weight:normal" x="909.575" y="763.4">
      <tspan x="909.575" y="763.4">Check is SRMv2 SURL</tspan>
    </text>
  </g>
  <g>
    <polyline style="fill: none; fill-opacity:0; stroke-width: 2; stroke: #000000" points="909.575,777.5 909.575,827.5 910,827.5 910,873.028 "/>
    <polyline style="fill: none; fill-opacity:0; stroke-width: 2; stroke: #000000" points="905,865.264 910,875.264 915,865.264 "/>
  </g>
  <g>
    <polygon style="fill: #ffffff" points="890,897.5 910,877.5 930,897.5 910,917.5 "/>
    <polygon style="fill: none; fill-opacity:0; stroke-width: 2; stroke: #000000" points="890,897.5 910,877.5 930,897.5 910,917.5 "/>
  </g>
  <g>
    <polyline style="fill: none; fill-opacity:0; stroke-width: 2; stroke: #000000" points="930,897.5 1135,897.5 1135,623 1335.53,623 "/>
    <polyline style="fill: none; fill-opacity:0; stroke-width: 2; stroke: #000000" points="1327.76,628 1337.76,623 1327.76,618 "/>
    <text style="fill: #000000;text-anchor:middle;font-size:12.7998;font-family:sanserif;font-style:normal;font-weight:normal" x="1191" y="746.5">{ not a SURL}</text>
  </g>
  <g>
    <rect style="fill: #ffffff" x="870" y="964.5" width="189.05" height="36" rx="20" ry="20"/>
    <rect style="fill: none; fill-opacity:0; stroke-width: 2; stroke: #000000" x="870" y="964.5" width="189.05" height="36" rx="20" ry="20"/>
    <text style="fill: #000000;text-anchor:middle;font-size:12.8;font-family:sanserif;font-style:normal;font-weight:normal" x="964.525" y="986.4">
      <tspan x="964.525" y="986.4">Check SRM access system</tspan>
    </text>
  </g>
  <g>
    <polyline style="fill: none; fill-opacity:0; stroke-width: 2; stroke: #000000" points="910,917.5 910,941 964.525,941 964.525,960.028 "/>
    <polyline style="fill: none; fill-opacity:0; stroke-width: 2; stroke: #000000" points="959.525,952.264 964.525,962.264 969.525,952.264 "/>
  </g>
  <g>
    <polyline style="fill: none; fill-opacity:0; stroke-width: 2; stroke: #000000" points="870,982.5 698.5,982.5 698.5,901 521.472,901 "/>
    <polyline style="fill: none; fill-opacity:0; stroke-width: 2; stroke: #000000" points="529.236,896 519.236,901 529.236,906 "/>
    <text style="fill: #000000;text-anchor:middle;font-size:12.7998;font-family:sanserif;font-style:normal;font-weight:normal" x="681" y="884.5">{ result of SRM request }</text>
  </g>
  <g>
    <polyline style="fill: none; fill-opacity:0; stroke-width: 2; stroke: #000000" points="1059.05,982.5 1258,982.5 1258,641 1335.53,641 "/>
    <polyline style="fill: none; fill-opacity:0; stroke-width: 2; stroke: #000000" points="1327.76,646 1337.76,641 1327.76,636 "/>
    <text style="fill: #000000;text-anchor:middle;font-size:12.7998;font-family:sanserif;font-style:normal;font-weight:normal" x="1248" y="854.5">{ error while request }</text>
  </g>
  <g>
    <polygon style="fill: #ffffff" points="1410,942.5 1454.5,942.5 1466.5,954.5 1466.5,976.5 1410,976.5 "/>
    <polygon style="fill: none; fill-opacity:0; stroke-width: 2; stroke: #000000" points="1410,942.5 1454.5,942.5 1466.5,954.5 1466.5,976.5 1410,976.5 "/>
    <polyline style="fill: none; fill-opacity:0; stroke-width: 1; stroke: #000000" points="1454.5,942.5 1454.5,954.5 1466.5,954.5 "/>
    <text style="fill: #000000;text-anchor:start;font-size:12.8;font-family:monospace;font-style:normal;font-weight:normal" x="1417" y="967.4">
      <tspan x="1417" y="967.4">Error</tspan>
    </text>
  </g>
</svg>
