<?xml version="1.0" encoding="UTF-8" standalone="no"?>
<!DOCTYPE svg PUBLIC "-//W3C//DTD SVG 1.0//EN" "http://www.w3.org/TR/2001/PR-SVG-20010719/DTD/svg10.dtd">
<svg width="75cm" height="45cm" viewBox="245 -548 1490 897" xmlns="http://www.w3.org/2000/svg" xmlns:xlink="http://www.w3.org/1999/xlink">
  <g>
    <rect style="fill: #ffffff" x="424" y="-316.5" width="97.9" height="70"/>
    <rect style="fill: none; fill-opacity:0; stroke-width: 2; stroke: #000000" x="424" y="-316.5" width="97.9" height="70"/>
    <rect style="fill: #ffffff" x="404" y="-302.5" width="40" height="14"/>
    <rect style="fill: none; fill-opacity:0; stroke-width: 2; stroke: #000000" x="404" y="-302.5" width="40" height="14"/>
    <rect style="fill: #ffffff" x="404" y="-274.5" width="40" height="14"/>
    <rect style="fill: none; fill-opacity:0; stroke-width: 2; stroke: #000000" x="404" y="-274.5" width="40" height="14"/>
    <text style="fill: #000000;text-anchor:start;font-size:12.8;font-family:sanserif;font-style:normal;font-weight:normal" x="452" y="-290.6">
      <tspan x="452" y="-290.6">gfal posix</tspan>
    </text>
  </g>
  <g>
    <rect style="fill: #ffffff" x="737" y="-317.5" width="119.85" height="70"/>
    <rect style="fill: none; fill-opacity:0; stroke-width: 2; stroke: #000000" x="737" y="-317.5" width="119.85" height="70"/>
    <rect style="fill: #ffffff" x="717" y="-303.5" width="40" height="14"/>
    <rect style="fill: none; fill-opacity:0; stroke-width: 2; stroke: #000000" x="717" y="-303.5" width="40" height="14"/>
    <rect style="fill: #ffffff" x="717" y="-275.5" width="40" height="14"/>
    <rect style="fill: none; fill-opacity:0; stroke-width: 2; stroke: #000000" x="717" y="-275.5" width="40" height="14"/>
    <text style="fill: #000000;text-anchor:start;font-size:12.8;font-family:sanserif;font-style:normal;font-weight:normal" x="765" y="-291.6">
      <tspan x="765" y="-291.6">gfal common</tspan>
    </text>
  </g>
  <g>
    <polyline style="fill: none; fill-opacity:0; stroke-width: 2; stroke: #000000" points="521.9,-281.5 563.254,-281.5 563.254,-281.5 603,-281.5 "/>
    <path style="fill: none; fill-opacity:0; stroke-width: 2; stroke: #000000" d="M 611,-289.5 A 8,8 0 1 0 611,-273.5"/>
    <text style="fill: #000000;text-anchor:middle;font-size:12.8;font-family:monospace;font-style:normal;font-weight:normal" x="663" y="-299.5">
      <tspan x="663" y="-299.5"></tspan>
    </text>
  </g>
  <g>
    <polyline style="fill: none; fill-opacity:0; stroke-width: 2; stroke: #000000" points="402.994,-267.5 332.997,-267.5 332.997,-284.5 280,-284.5 "/>
    <path style="fill: #ffffff" d="M 264 -284.5 C 264,-288.5 268,-292.5 272,-292.5 C 276,-292.5 280,-288.5 280,-284.5 C 280,-280.5 276,-276.5 272,-276.5 C 268,-276.5 264,-280.5 264,-284.5z"/>
    <path style="fill: none; fill-opacity:0; stroke-width: 2; stroke: #000000" d="M 264 -284.5 C 264,-288.5 268,-292.5 272,-292.5 C 276,-292.5 280,-288.5 280,-284.5 C 280,-280.5 276,-276.5 272,-276.5 C 268,-276.5 264,-280.5 264,-284.5"/>
    <text style="fill: #000000;text-anchor:middle;font-size:12.8;font-family:monospace;font-style:normal;font-weight:normal" x="416" y="-304.5">
      <tspan x="416" y="-304.5"></tspan>
    </text>
  </g>
  <g>
    <polyline style="fill: none; fill-opacity:0; stroke-width: 2; stroke: #000000" points="737,-282.5 678,-282.5 678,-281.5 636,-281.5 "/>
    <path style="fill: #ffffff" d="M 620 -281.5 C 620,-285.5 624,-289.5 628,-289.5 C 632,-289.5 636,-285.5 636,-281.5 C 636,-277.5 632,-273.5 628,-273.5 C 624,-273.5 620,-277.5 620,-281.5z"/>
    <path style="fill: none; fill-opacity:0; stroke-width: 2; stroke: #000000" d="M 620 -281.5 C 620,-285.5 624,-289.5 628,-289.5 C 632,-289.5 636,-285.5 636,-281.5 C 636,-277.5 632,-273.5 628,-273.5 C 624,-273.5 620,-277.5 620,-281.5"/>
    <text style="fill: #000000;text-anchor:middle;font-size:12.8;font-family:monospace;font-style:normal;font-weight:normal" x="733" y="-303.5">
      <tspan x="733" y="-303.5"></tspan>
    </text>
  </g>
  <text style="fill: #000000;text-anchor:start;font-size:45.1556;font-family:sanserif;font-style:normal;font-weight:700" x="791" y="-505.5">
    <tspan x="791" y="-505.5">GFAL arch 2.0 </tspan>
  </text>
  <g>
    <rect style="fill: #ffffff" x="1664" y="-368.5" width="61.15" height="70"/>
    <rect style="fill: none; fill-opacity:0; stroke-width: 2; stroke: #000000" x="1664" y="-368.5" width="61.15" height="70"/>
    <rect style="fill: #ffffff" x="1644" y="-354.5" width="40" height="14"/>
    <rect style="fill: none; fill-opacity:0; stroke-width: 2; stroke: #000000" x="1644" y="-354.5" width="40" height="14"/>
    <rect style="fill: #ffffff" x="1644" y="-326.5" width="40" height="14"/>
    <rect style="fill: none; fill-opacity:0; stroke-width: 2; stroke: #000000" x="1644" y="-326.5" width="40" height="14"/>
    <text style="fill: #000000;text-anchor:start;font-size:12.8;font-family:sanserif;font-style:normal;font-weight:normal" x="1692" y="-342.6">
      <tspan x="1692" y="-342.6">Glib</tspan>
    </text>
  </g>
  <g>
    <line style="fill: none; fill-opacity:0; stroke-width: 2; stroke: #000000" x1="1643" y1="-319.623" x2="905" y2="-322.5"/>
    <ellipse style="fill: #ffffff" cx="914.599" cy="-322.463" rx="9.59917" ry="9.59917"/>
    <ellipse style="fill: none; fill-opacity:0; stroke-width: 2; stroke: #000000" cx="914.599" cy="-322.463" rx="9.59917" ry="9.59917"/>
    <text style="fill: #000000;text-anchor:start;font-size:12.7998;font-family:monospace;font-style:normal;font-weight:normal" x="899" y="-322.5"></text>
  </g>
  <g>
    <polyline style="fill: none; fill-opacity:0; stroke-width: 2; stroke: #000000" points="857.86,-268.5 883.43,-268.5 883.43,-321.5 893,-321.5 "/>
    <path style="fill: none; fill-opacity:0; stroke-width: 2; stroke: #000000" d="M 901,-329.5 A 8,8 0 1 0 901,-313.5"/>
    <text style="fill: #000000;text-anchor:middle;font-size:12.8;font-family:monospace;font-style:normal;font-weight:normal" x="827" y="-296.5">
      <tspan x="827" y="-296.5"></tspan>
    </text>
  </g>
  <g>
    <polygon style="fill: #ffffff" points="1098,-366.5 1265.7,-366.5 1277.7,-354.5 1277.7,-300.5 1098,-300.5 "/>
    <polygon style="fill: none; fill-opacity:0; stroke-width: 2; stroke: #000000" points="1098,-366.5 1265.7,-366.5 1277.7,-354.5 1277.7,-300.5 1098,-300.5 "/>
    <polyline style="fill: none; fill-opacity:0; stroke-width: 1; stroke: #000000" points="1265.7,-366.5 1265.7,-354.5 1277.7,-354.5 "/>
    <text style="fill: #000000;text-anchor:start;font-size:12.8;font-family:monospace;font-style:normal;font-weight:normal" x="1105" y="-341.6">
      <tspan x="1105" y="-341.6">- Error Management</tspan>
      <tspan x="1105" y="-325.6">- Container provider</tspan>
      <tspan x="1105" y="-309.6">- Bindings generation</tspan>
    </text>
  </g>
  <g>
    <rect style="fill: #ffffff" x="1331" y="-248.5" width="81.4" height="70"/>
    <rect style="fill: none; fill-opacity:0; stroke-width: 2; stroke: #000000" x="1331" y="-248.5" width="81.4" height="70"/>
    <rect style="fill: #ffffff" x="1311" y="-234.5" width="40" height="14"/>
    <rect style="fill: none; fill-opacity:0; stroke-width: 2; stroke: #000000" x="1311" y="-234.5" width="40" height="14"/>
    <rect style="fill: #ffffff" x="1311" y="-206.5" width="40" height="14"/>
    <rect style="fill: none; fill-opacity:0; stroke-width: 2; stroke: #000000" x="1311" y="-206.5" width="40" height="14"/>
    <text style="fill: #000000;text-anchor:start;font-size:12.8;font-family:sanserif;font-style:normal;font-weight:normal" x="1359" y="-222.6">
      <tspan x="1359" y="-222.6">lfc part</tspan>
    </text>
  </g>
  <g>
    <polygon style="fill: #ffffff" points="1423,-244.5 1721.6,-244.5 1733.6,-232.5 1733.6,-210.5 1423,-210.5 "/>
    <polygon style="fill: none; fill-opacity:0; stroke-width: 2; stroke: #000000" points="1423,-244.5 1721.6,-244.5 1733.6,-232.5 1733.6,-210.5 1423,-210.5 "/>
    <polyline style="fill: none; fill-opacity:0; stroke-width: 1; stroke: #000000" points="1721.6,-244.5 1721.6,-232.5 1733.6,-232.5 "/>
    <text style="fill: #000000;text-anchor:start;font-size:12.8;font-family:monospace;font-style:normal;font-weight:normal" x="1430" y="-219.6">
      <tspan x="1430" y="-219.6">Lfc resolution / registration / remove</tspan>
    </text>
  </g>
  <g>
    <polyline style="fill: none; fill-opacity:0; stroke-width: 2; stroke: #000000" points="1309.99,-199.5 1288.57,-199.5 1288.57,-219 1284.15,-219 "/>
    <path style="fill: #ffffff" d="M 1268.15 -219 C 1268.15,-223 1272.15,-227 1276.15,-227 C 1280.15,-227 1284.15,-223 1284.15,-219 C 1284.15,-215 1280.15,-211 1276.15,-211 C 1272.15,-211 1268.15,-215 1268.15,-219z"/>
    <path style="fill: none; fill-opacity:0; stroke-width: 2; stroke: #000000" d="M 1268.15 -219 C 1268.15,-223 1272.15,-227 1276.15,-227 C 1280.15,-227 1284.15,-223 1284.15,-219 C 1284.15,-215 1280.15,-211 1276.15,-211 C 1272.15,-211 1268.15,-215 1268.15,-219"/>
    <text style="fill: #000000;text-anchor:middle;font-size:12.8;font-family:monospace;font-style:normal;font-weight:normal" x="1021" y="-235.5">
      <tspan x="1021" y="-235.5"></tspan>
    </text>
  </g>
  <g>
    <polyline style="fill: none; fill-opacity:0; stroke-width: 2; stroke: #000000" points="857.86,-268.5 897.506,-268.5 897.506,-229 921.152,-229 "/>
    <path style="fill: none; fill-opacity:0; stroke-width: 2; stroke: #000000" d="M 929.152,-237 A 8,8 0 1 0 929.152,-221"/>
    <text style="fill: #000000;text-anchor:middle;font-size:12.8;font-family:monospace;font-style:normal;font-weight:normal" x="827" y="-279.5">
      <tspan x="827" y="-279.5"></tspan>
    </text>
  </g>
  <g>
    <rect style="fill: #ffffff" x="999" y="-139.5" width="90.45" height="70"/>
    <rect style="fill: none; fill-opacity:0; stroke-width: 2; stroke: #000000" x="999" y="-139.5" width="90.45" height="70"/>
    <rect style="fill: #ffffff" x="979" y="-125.5" width="40" height="14"/>
    <rect style="fill: none; fill-opacity:0; stroke-width: 2; stroke: #000000" x="979" y="-125.5" width="40" height="14"/>
    <rect style="fill: #ffffff" x="979" y="-97.5" width="40" height="14"/>
    <rect style="fill: none; fill-opacity:0; stroke-width: 2; stroke: #000000" x="979" y="-97.5" width="40" height="14"/>
    <text style="fill: #000000;text-anchor:start;font-size:12.8;font-family:sanserif;font-style:normal;font-weight:normal" x="1027" y="-113.6">
      <tspan x="1027" y="-113.6">srm part</tspan>
    </text>
  </g>
  <g>
    <line style="fill: none; fill-opacity:0; stroke-width: 2; stroke: #000000" x1="978.012" y1="-90.0769" x2="915" y2="-89.5"/>
    <ellipse style="fill: #ffffff" cx="923.499" cy="-89.5778" rx="8.49964" ry="8.49964"/>
    <ellipse style="fill: none; fill-opacity:0; stroke-width: 2; stroke: #000000" cx="923.499" cy="-89.5778" rx="8.49964" ry="8.49964"/>
    <text style="fill: #000000;text-anchor:start;font-size:12.7998;font-family:monospace;font-style:normal;font-weight:normal" x="909" y="-89.5"></text>
  </g>
  <g>
    <polyline style="fill: none; fill-opacity:0; stroke-width: 2; stroke: #000000" points="857.754,-268.5 884,-268.5 884,-89.5 902,-89.5 "/>
    <path style="fill: none; fill-opacity:0; stroke-width: 2; stroke: #000000" d="M 910,-97.5 A 8,8 0 1 0 910,-81.5"/>
    <text style="fill: #000000;text-anchor:middle;font-size:12.8;font-family:monospace;font-style:normal;font-weight:normal" x="829" y="-123.5">
      <tspan x="829" y="-123.5"></tspan>
    </text>
  </g>
  <g>
    <rect style="fill: #ffffff" x="997.002" y="-11.5" width="124.85" height="70"/>
    <rect style="fill: none; fill-opacity:0; stroke-width: 2; stroke: #000000" x="997.002" y="-11.5" width="124.85" height="70"/>
    <rect style="fill: #ffffff" x="977.002" y="2.5" width="40" height="14"/>
    <rect style="fill: none; fill-opacity:0; stroke-width: 2; stroke: #000000" x="977.002" y="2.5" width="40" height="14"/>
    <rect style="fill: #ffffff" x="977.002" y="30.5" width="40" height="14"/>
    <rect style="fill: none; fill-opacity:0; stroke-width: 2; stroke: #000000" x="977.002" y="30.5" width="40" height="14"/>
    <text style="fill: #000000;text-anchor:start;font-size:12.8;font-family:sanserif;font-style:normal;font-weight:normal" x="1025" y="14.4">
      <tspan x="1025" y="14.4">file read/write</tspan>
    </text>
  </g>
  <g>
    <polyline style="fill: none; fill-opacity:0; stroke-width: 2; stroke: #000000" points="975.994,37.5 940.498,37.5 940.498,38.5 922.002,38.5 "/>
    <path style="fill: #ffffff" d="M 906.002 38.5 C 906.002,34.5 910.002,30.5 914.002,30.5 C 918.002,30.5 922.002,34.5 922.002,38.5 C 922.002,42.5 918.002,46.5 914.002,46.5 C 910.002,46.5 906.002,42.5 906.002,38.5z"/>
    <path style="fill: none; fill-opacity:0; stroke-width: 2; stroke: #000000" d="M 906.002 38.5 C 906.002,34.5 910.002,30.5 914.002,30.5 C 918.002,30.5 922.002,34.5 922.002,38.5 C 922.002,42.5 918.002,46.5 914.002,46.5 C 910.002,46.5 906.002,42.5 906.002,38.5"/>
    <text style="fill: #000000;text-anchor:middle;font-size:12.8;font-family:monospace;font-style:normal;font-weight:normal" x="950.002" y="11.5">
      <tspan x="950.002" y="11.5"></tspan>
    </text>
  </g>
  <g>
    <polyline style="fill: none; fill-opacity:0; stroke-width: 2; stroke: #000000" points="857.756,-268.5 884.002,-268.5 884.002,38.5 889.002,38.5 "/>
    <path style="fill: none; fill-opacity:0; stroke-width: 2; stroke: #000000" d="M 897.002,30.5 A 8,8 0 1 0 897.002,46.5"/>
    <text style="fill: #000000;text-anchor:middle;font-size:12.8;font-family:monospace;font-style:normal;font-weight:normal" x="862.002" y="19.5">
      <tspan x="862.002" y="19.5"></tspan>
    </text>
  </g>
  <g>
    <rect style="fill: #ffffff" x="1262" y="-19.5" width="97.5" height="70"/>
    <rect style="fill: none; fill-opacity:0; stroke-width: 2; stroke: #000000" x="1262" y="-19.5" width="97.5" height="70"/>
    <rect style="fill: #ffffff" x="1242" y="-5.5" width="40" height="14"/>
    <rect style="fill: none; fill-opacity:0; stroke-width: 2; stroke: #000000" x="1242" y="-5.5" width="40" height="14"/>
    <rect style="fill: #ffffff" x="1242" y="22.5" width="40" height="14"/>
    <rect style="fill: none; fill-opacity:0; stroke-width: 2; stroke: #000000" x="1242" y="22.5" width="40" height="14"/>
    <text style="fill: #000000;text-anchor:start;font-size:12.8;font-family:sanserif;font-style:normal;font-weight:normal" x="1290" y="6.4">
      <tspan x="1290" y="6.4">dcap part</tspan>
    </text>
  </g>
  <g>
    <rect style="fill: #ffffff" x="1273" y="106.5" width="87.45" height="70"/>
    <rect style="fill: none; fill-opacity:0; stroke-width: 2; stroke: #000000" x="1273" y="106.5" width="87.45" height="70"/>
    <rect style="fill: #ffffff" x="1253" y="120.5" width="40" height="14"/>
    <rect style="fill: none; fill-opacity:0; stroke-width: 2; stroke: #000000" x="1253" y="120.5" width="40" height="14"/>
    <rect style="fill: #ffffff" x="1253" y="148.5" width="40" height="14"/>
    <rect style="fill: none; fill-opacity:0; stroke-width: 2; stroke: #000000" x="1253" y="148.5" width="40" height="14"/>
    <text style="fill: #000000;text-anchor:start;font-size:12.8;font-family:sanserif;font-style:normal;font-weight:normal" x="1301" y="132.4">
      <tspan x="1301" y="132.4">rfio part</tspan>
    </text>
  </g>
  <g>
    <polyline style="fill: none; fill-opacity:0; stroke-width: 2; stroke: #000000" points="1241,29.5 1241,29.5 1199,29.5 "/>
    <path style="fill: #ffffff" d="M 1183 29.5 C 1183,25.5 1187,21.5 1191,21.5 C 1195,21.5 1199,25.5 1199,29.5 C 1199,33.5 1195,37.5 1191,37.5 C 1187,37.5 1183,33.5 1183,29.5z"/>
    <path style="fill: none; fill-opacity:0; stroke-width: 2; stroke: #000000" d="M 1183 29.5 C 1183,25.5 1187,21.5 1191,21.5 C 1195,21.5 1199,25.5 1199,29.5 C 1199,33.5 1195,37.5 1191,37.5 C 1187,37.5 1183,33.5 1183,29.5"/>
    <text style="fill: #000000;text-anchor:middle;font-size:12.8;font-family:monospace;font-style:normal;font-weight:normal" x="1303" y="-4.5">
      <tspan x="1303" y="-4.5"></tspan>
    </text>
  </g>
  <g>
    <polyline style="fill: none; fill-opacity:0; stroke-width: 2; stroke: #000000" points="1122.86,37.5 1152.43,37.5 1152.43,29.5 1166,29.5 "/>
    <path style="fill: none; fill-opacity:0; stroke-width: 2; stroke: #000000" d="M 1174,21.5 A 8,8 0 1 0 1174,37.5"/>
    <text style="fill: #000000;text-anchor:middle;font-size:12.8;font-family:monospace;font-style:normal;font-weight:normal" x="1102" y="-7.5">
      <tspan x="1102" y="-7.5"></tspan>
    </text>
  </g>
  <g>
    <polyline style="fill: none; fill-opacity:0; stroke-width: 2; stroke: #000000" points="1252,155.5 1207,155.5 1207,158.5 1179,158.5 "/>
    <path style="fill: #ffffff" d="M 1163 158.5 C 1163,154.5 1167,150.5 1171,150.5 C 1175,150.5 1179,154.5 1179,158.5 C 1179,162.5 1175,166.5 1171,166.5 C 1167,166.5 1163,162.5 1163,158.5z"/>
    <path style="fill: none; fill-opacity:0; stroke-width: 2; stroke: #000000" d="M 1163 158.5 C 1163,154.5 1167,150.5 1171,150.5 C 1175,150.5 1179,154.5 1179,158.5 C 1179,162.5 1175,166.5 1171,166.5 C 1167,166.5 1163,162.5 1163,158.5"/>
    <text style="fill: #000000;text-anchor:middle;font-size:12.8;font-family:monospace;font-style:normal;font-weight:normal" x="1283" y="114.5">
      <tspan x="1283" y="114.5"></tspan>
    </text>
  </g>
  <g>
    <polyline style="fill: none; fill-opacity:0; stroke-width: 2; stroke: #000000" points="1122.86,37.5 1142.43,37.5 1142.43,158.5 1146,158.5 "/>
    <path style="fill: none; fill-opacity:0; stroke-width: 2; stroke: #000000" d="M 1154,150.5 A 8,8 0 1 0 1154,166.5"/>
    <text style="fill: #000000;text-anchor:middle;font-size:12.8;font-family:monospace;font-style:normal;font-weight:normal" x="1097" y="19.5">
      <tspan x="1097" y="19.5"></tspan>
    </text>
  </g>
  <g>
    <polygon style="fill: #ffffff" points="1145,-113.5 1351.2,-113.5 1363.2,-101.5 1363.2,-63.5 1145,-63.5 "/>
    <polygon style="fill: none; fill-opacity:0; stroke-width: 2; stroke: #000000" points="1145,-113.5 1351.2,-113.5 1363.2,-101.5 1363.2,-63.5 1145,-63.5 "/>
    <polyline style="fill: none; fill-opacity:0; stroke-width: 1; stroke: #000000" points="1351.2,-113.5 1351.2,-101.5 1363.2,-101.5 "/>
    <text style="fill: #000000;text-anchor:start;font-size:12.8;font-family:monospace;font-style:normal;font-weight:normal" x="1152" y="-88.6">
      <tspan x="1152" y="-88.6">- surl / turl translation </tspan>
      <tspan x="1152" y="-72.6">- file management</tspan>
    </text>
  </g>
  <g>
    <rect style="fill: #ffffff" x="1013.15" y="217.5" width="89.7" height="70"/>
    <rect style="fill: none; fill-opacity:0; stroke-width: 2; stroke: #000000" x="1013.15" y="217.5" width="89.7" height="70"/>
    <rect style="fill: #ffffff" x="993.152" y="231.5" width="40" height="14"/>
    <rect style="fill: none; fill-opacity:0; stroke-width: 2; stroke: #000000" x="993.152" y="231.5" width="40" height="14"/>
    <rect style="fill: #ffffff" x="993.152" y="259.5" width="40" height="14"/>
    <rect style="fill: none; fill-opacity:0; stroke-width: 2; stroke: #000000" x="993.152" y="259.5" width="40" height="14"/>
    <text style="fill: #000000;text-anchor:start;font-size:12.8;font-family:sanserif;font-style:normal;font-weight:normal" x="1041.15" y="243.4">
      <tspan x="1041.15" y="243.4">bdii part</tspan>
    </text>
  </g>
  <g>
    <polyline style="fill: none; fill-opacity:0; stroke-width: 2; stroke: #000000" points="856.85,-282.5 884.152,-282.5 884.152,253.5 912.152,253.5 "/>
    <path style="fill: none; fill-opacity:0; stroke-width: 2; stroke: #000000" d="M 920.152,245.5 A 8,8 0 1 0 920.152,261.5"/>
    <text style="fill: #000000;text-anchor:middle;font-size:12.8;font-family:monospace;font-style:normal;font-weight:normal" x="348.898" y="197.7">
      <tspan x="348.898" y="197.7"></tspan>
    </text>
  </g>
  <g>
    <polyline style="fill: none; fill-opacity:0; stroke-width: 2; stroke: #000000" points="992.146,266.5 960.149,266.5 960.149,253.5 945.152,253.5 "/>
    <path style="fill: #ffffff" d="M 929.152 253.5 C 929.152,249.5 933.152,245.5 937.152,245.5 C 941.152,245.5 945.152,249.5 945.152,253.5 C 945.152,257.5 941.152,261.5 937.152,261.5 C 933.152,261.5 929.152,257.5 929.152,253.5z"/>
    <path style="fill: none; fill-opacity:0; stroke-width: 2; stroke: #000000" d="M 929.152 253.5 C 929.152,249.5 933.152,245.5 937.152,245.5 C 941.152,245.5 945.152,249.5 945.152,253.5 C 945.152,257.5 941.152,261.5 937.152,261.5 C 933.152,261.5 929.152,257.5 929.152,253.5"/>
    <text style="fill: #000000;text-anchor:middle;font-size:12.8;font-family:monospace;font-style:normal;font-weight:normal" x="979.152" y="238.5">
      <tspan x="979.152" y="238.5"></tspan>
    </text>
  </g>
  <rect style="fill: none; fill-opacity:0; stroke-width: 2; stroke-dasharray: 20; stroke: #000000" x="255.154" y="-392.5" width="619" height="678"/>
  <text style="fill: #000000;text-anchor:start;font-size:12.8;font-family:sanserif;font-style:normal;font-weight:normal" x="523.154" y="-356.5">
    <tspan x="523.154" y="-356.5"></tspan>
  </text>
  <text style="fill: #000000;text-anchor:start;font-size:12.8;font-family:sanserif;font-style:normal;font-weight:normal" x="564.654" y="-53.5">
    <tspan x="564.654" y="-53.5"></tspan>
  </text>
  <text style="fill: #000000;text-anchor:start;font-size:28.2222;font-family:sanserif;font-style:normal;font-weight:normal" x="471.154" y="-416">
    <tspan x="471.154" y="-416">libgfal_posix</tspan>
  </text>
  <rect style="fill: none; fill-opacity:0; stroke-width: 2; stroke-dasharray: 20; stroke: #000000" x="874.154" y="-392" width="644" height="740"/>
  <text style="fill: #000000;text-anchor:start;font-size:28.2222;font-family:sanserif;font-style:normal;font-weight:normal" x="1094.15" y="-414">
    <tspan x="1094.15" y="-414">libgal_common</tspan>
  </text>
  <g>
    <rect style="fill: #ffffff" x="1006.15" y="-264" width="195.85" height="70"/>
    <rect style="fill: none; fill-opacity:0; stroke-width: 2; stroke: #000000" x="1006.15" y="-264" width="195.85" height="70"/>
    <rect style="fill: #ffffff" x="986.152" y="-250" width="40" height="14"/>
    <rect style="fill: none; fill-opacity:0; stroke-width: 2; stroke: #000000" x="986.152" y="-250" width="40" height="14"/>
    <rect style="fill: #ffffff" x="986.152" y="-222" width="40" height="14"/>
    <rect style="fill: none; fill-opacity:0; stroke-width: 2; stroke: #000000" x="986.152" y="-222" width="40" height="14"/>
    <text style="fill: #000000;text-anchor:start;font-size:12.7998;font-family:sanserif;font-style:normal;font-weight:normal" x="1034.15" y="-238.1">
      <tspan x="1034.15" y="-238.1">catalog abstraction layer</tspan>
    </text>
  </g>
  <g>
    <polyline style="fill: none; fill-opacity:0; stroke-width: 2; stroke: #000000" points="1006.15,-229 1006.15,-229 954.152,-229 "/>
    <path style="fill: #ffffff" d="M 938.152 -229 C 938.152,-233 942.152,-237 946.152,-237 C 950.152,-237 954.152,-233 954.152,-229 C 954.152,-225 950.152,-221 946.152,-221 C 942.152,-221 938.152,-225 938.152,-229z"/>
    <path style="fill: none; fill-opacity:0; stroke-width: 2; stroke: #000000" d="M 938.152 -229 C 938.152,-233 942.152,-237 946.152,-237 C 950.152,-237 954.152,-233 954.152,-229 C 954.152,-225 950.152,-221 946.152,-221 C 942.152,-221 938.152,-225 938.152,-229"/>
    <text style="fill: #000000;text-anchor:middle;font-size:12.7998;font-family:monospace;font-style:normal;font-weight:normal" x="951.152" y="-252">
      <tspan x="951.152" y="-252"></tspan>
    </text>
  </g>
  <g>
    <polyline style="fill: none; fill-opacity:0; stroke-width: 2; stroke: #000000" points="1202,-229 1234.58,-229 1234.58,-219 1251.15,-219 "/>
    <path style="fill: none; fill-opacity:0; stroke-width: 2; stroke: #000000" d="M 1259.15,-227 A 8,8 0 1 0 1259.15,-211"/>
    <text style="fill: #000000;text-anchor:middle;font-size:12.7998;font-family:monospace;font-style:normal;font-weight:normal" x="1175.15" y="-173">
      <tspan x="1175.15" y="-173"></tspan>
    </text>
  </g>
</svg>
