<?xml version="1.0" encoding="UTF-8" standalone="no"?>
<!DOCTYPE svg PUBLIC "-//W3C//DTD SVG 1.0//EN" "http://www.w3.org/TR/2001/PR-SVG-20010719/DTD/svg10.dtd">
<svg width="75cm" height="63cm" viewBox="-8 -59 1487 1246" xmlns="http://www.w3.org/2000/svg" xmlns:xlink="http://www.w3.org/1999/xlink">
  <ellipse style="fill: #000000" cx="465" cy="41" rx="10" ry="10"/>
  <g>
    <polygon style="fill: #ffffff" points="402,391 422,371 442,391 422,411 "/>
    <polygon style="fill: none; fill-opacity:0; stroke-width: 2; stroke: #000000" points="402,391 422,371 442,391 422,411 "/>
  </g>
  <g>
    <polyline style="fill: none; fill-opacity:0; stroke-width: 2; stroke: #000000" points="465,51 465,95.5 463.95,95.5 463.95,135.528 "/>
    <polyline style="fill: none; fill-opacity:0; stroke-width: 2; stroke: #000000" points="458.95,127.764 463.95,137.764 468.95,127.764 "/>
    <text style="fill: #000000;text-anchor:middle;font-size:12.7998;font-family:sanserif;font-style:normal;font-weight:normal" x="564.976" y="84.4974">gfal_access(file,perms)</text>
  </g>
  <g>
    <rect style="fill: #ffffff" x="361" y="287" width="125" height="36" rx="20" ry="20"/>
    <rect style="fill: none; fill-opacity:0; stroke-width: 2; stroke: #000000" x="361" y="287" width="125" height="36" rx="20" ry="20"/>
    <text style="fill: #000000;text-anchor:middle;font-size:12.8;font-family:sanserif;font-style:normal;font-weight:normal" x="423.5" y="308.9">
      <tspan x="423.5" y="308.9">Check PATH URL</tspan>
    </text>
  </g>
  <g>
    <rect style="fill: #ffffff" x="98" y="467" width="246.7" height="36" rx="20" ry="20"/>
    <rect style="fill: none; fill-opacity:0; stroke-width: 2; stroke: #000000" x="98" y="467" width="246.7" height="36" rx="20" ry="20"/>
    <text style="fill: #000000;text-anchor:middle;font-size:12.8;font-family:sanserif;font-style:normal;font-weight:normal" x="221.35" y="488.9">
      <tspan x="221.35" y="488.9">Map to the Unix System call access</tspan>
    </text>
  </g>
  <g>
    <polyline style="fill: none; fill-opacity:0; stroke-width: 2; stroke: #000000" points="402,391 221.35,391 221.35,462.528 "/>
    <polyline style="fill: none; fill-opacity:0; stroke-width: 2; stroke: #000000" points="216.35,454.764 221.35,464.764 226.35,454.764 "/>
    <text style="fill: #000000;text-anchor:middle;font-size:12.7998;font-family:sanserif;font-style:normal;font-weight:normal" x="248.5" y="377">{file:// url }</text>
  </g>
  <g>
    <polyline style="fill: none; fill-opacity:0; stroke-width: 2; stroke: #000000" points="442,391 670.302,391 670.302,424 894.132,424 "/>
    <polyline style="fill: none; fill-opacity:0; stroke-width: 2; stroke: #000000" points="886.368,429 896.368,424 886.368,419 "/>
    <text style="fill: #000000;text-anchor:middle;font-size:12.7998;font-family:sanserif;font-style:normal;font-weight:normal" x="694.478" y="383.5">{else}</text>
  </g>
  <ellipse style="fill: #000000" cx="571" cy="1176" rx="10" ry="10"/>
  <g>
    <polyline style="fill: none; fill-opacity:0; stroke-width: 2; stroke: #000000" points="221.35,503 220,503 220,1062.5 504.528,1062.5 "/>
    <polyline style="fill: none; fill-opacity:0; stroke-width: 2; stroke: #000000" points="496.764,1067.5 506.764,1062.5 496.764,1057.5 "/>
  </g>
  <g>
    <rect style="fill: #ffffff" x="1384" y="629" width="94.35" height="36" rx="20" ry="20"/>
    <rect style="fill: none; fill-opacity:0; stroke-width: 2; stroke: #000000" x="1384" y="629" width="94.35" height="36" rx="20" ry="20"/>
    <text style="fill: #000000;text-anchor:middle;font-size:12.8;font-family:sanserif;font-style:normal;font-weight:normal" x="1431.18" y="650.9">
      <tspan x="1431.18" y="650.9">report Error</tspan>
    </text>
  </g>
  <g>
    <polyline style="fill: none; fill-opacity:0; stroke-width: 2; stroke: #000000" points="422,319 422,319 422,366.528 "/>
    <polyline style="fill: none; fill-opacity:0; stroke-width: 2; stroke: #000000" points="417,358.764 422,368.764 427,358.764 "/>
  </g>
  <g>
    <polygon style="fill: #ffffff" points="444,225 464,205 484,225 464,245 "/>
    <polygon style="fill: none; fill-opacity:0; stroke-width: 2; stroke: #000000" points="444,225 464,205 484,225 464,245 "/>
  </g>
  <g>
    <polyline style="fill: none; fill-opacity:0; stroke-width: 2; stroke: #000000" points="464,245 464,266 423.5,266 423.5,282.528 "/>
    <polyline style="fill: none; fill-opacity:0; stroke-width: 2; stroke: #000000" points="418.5,274.764 423.5,284.764 428.5,274.764 "/>
    <text style="fill: #000000;text-anchor:middle;font-size:12.7998;font-family:sanserif;font-style:normal;font-weight:normal" x="381" y="255.5">{ mode OK}</text>
  </g>
  <g>
    <rect style="fill: #ffffff" x="400" y="140" width="127.9" height="36" rx="20" ry="20"/>
    <rect style="fill: none; fill-opacity:0; stroke-width: 2; stroke: #000000" x="400" y="140" width="127.9" height="36" rx="20" ry="20"/>
    <text style="fill: #000000;text-anchor:middle;font-size:12.8;font-family:sanserif;font-style:normal;font-weight:normal" x="463.95" y="161.9">
      <tspan x="463.95" y="161.9">Check mode flag</tspan>
    </text>
  </g>
  <g>
    <polyline style="fill: none; fill-opacity:0; stroke-width: 2; stroke: #000000" points="463.95,176 463.95,190.5 464,190.5 464,200.528 "/>
    <polyline style="fill: none; fill-opacity:0; stroke-width: 2; stroke: #000000" points="459,192.764 464,202.764 469,192.764 "/>
  </g>
  <g>
    <polyline style="fill: none; fill-opacity:0; stroke-width: 2; stroke: #000000" points="483,221 483,222.5 1431.18,222.5 1431.18,624.528 "/>
    <polyline style="fill: none; fill-opacity:0; stroke-width: 2; stroke: #000000" points="1426.18,616.764 1431.18,626.764 1436.18,616.764 "/>
    <text style="fill: #000000;text-anchor:middle;font-size:12.7998;font-family:sanserif;font-style:normal;font-weight:normal" x="952.5" y="198.5">{ mode Incorrect}</text>
  </g>
  <ellipse style="fill: #000000" cx="1367.35" cy="970" rx="10" ry="10"/>
  <g>
    <polyline style="fill: none; fill-opacity:0; stroke-width: 2; stroke: #000000" points="1431.18,665 1431.18,743.5 1367.35,743.5 1367.35,954.551 "/>
    <polyline style="fill: none; fill-opacity:0; stroke-width: 2; stroke: #000000" points="1362.35,946.787 1367.35,956.787 1372.35,946.787 "/>
  </g>
  <g>
    <rect style="fill: #ffffff" x="835.354" y="424" width="144.5" height="36" rx="20" ry="20"/>
    <rect style="fill: none; fill-opacity:0; stroke-width: 2; stroke: #000000" x="835.354" y="424" width="144.5" height="36" rx="20" ry="20"/>
    <text style="fill: #000000;text-anchor:middle;font-size:12.8;font-family:sanserif;font-style:normal;font-weight:normal" x="907.604" y="445.9">
      <tspan x="907.604" y="445.9">Check ALL catalogs</tspan>
    </text>
  </g>
  <g>
    <polygon style="fill: #ffffff" points="883,539 903,519 923,539 903,559 "/>
    <polygon style="fill: none; fill-opacity:0; stroke-width: 2; stroke: #000000" points="883,539 903,519 923,539 903,559 "/>
  </g>
  <g>
    <polyline style="fill: none; fill-opacity:0; stroke-width: 2; stroke: #000000" points="903,457 903,457 903,514.528 "/>
    <polyline style="fill: none; fill-opacity:0; stroke-width: 2; stroke: #000000" points="898,506.764 903,516.764 908,506.764 "/>
  </g>
  <g>
    <polyline style="fill: none; fill-opacity:0; stroke-width: 2; stroke: #000000" points="903,559 903,578.5 906.225,578.5 906.225,593.528 "/>
    <polyline style="fill: none; fill-opacity:0; stroke-width: 2; stroke: #000000" points="901.225,585.764 906.225,595.764 911.225,585.764 "/>
  </g>
  <g>
    <polygon style="fill: #ffffff" points="620,1142 679.9,1142 691.9,1154 691.9,1176 620,1176 "/>
    <polygon style="fill: none; fill-opacity:0; stroke-width: 2; stroke: #000000" points="620,1142 679.9,1142 691.9,1154 691.9,1176 620,1176 "/>
    <polyline style="fill: none; fill-opacity:0; stroke-width: 1; stroke: #000000" points="679.9,1142 679.9,1154 691.9,1154 "/>
    <text style="fill: #000000;text-anchor:start;font-size:12.8;font-family:monospace;font-style:normal;font-weight:normal" x="627" y="1166.9">
      <tspan x="627" y="1166.9">Success</tspan>
    </text>
  </g>
  <g>
    <rect style="fill: #ffffff" x="755" y="598" width="302.45" height="36" rx="20" ry="20"/>
    <rect style="fill: none; fill-opacity:0; stroke-width: 2; stroke: #000000" x="755" y="598" width="302.45" height="36" rx="20" ry="20"/>
    <text style="fill: #000000;text-anchor:middle;font-size:12.8;font-family:sanserif;font-style:normal;font-weight:normal" x="906.225" y="619.9">
      <tspan x="906.225" y="619.9">Execute Request on the appropriate catalog</tspan>
    </text>
  </g>
  <g>
    <polygon style="fill: #ffffff" points="886,819 906,799 926,819 906,839 "/>
    <polygon style="fill: none; fill-opacity:0; stroke-width: 2; stroke: #000000" points="886,819 906,799 926,819 906,839 "/>
  </g>
  <g>
    <polyline style="fill: none; fill-opacity:0; stroke-width: 2; stroke: #000000" points="906.225,634 906.225,716.5 906,716.5 906,794.528 "/>
    <polyline style="fill: none; fill-opacity:0; stroke-width: 2; stroke: #000000" points="901,786.764 906,796.764 911,786.764 "/>
  </g>
  <g>
    <polyline style="fill: none; fill-opacity:0; stroke-width: 2; stroke: #000000" points="886,819 560.35,819 560.35,1040.03 "/>
    <polyline style="fill: none; fill-opacity:0; stroke-width: 2; stroke: #000000" points="555.35,1032.26 560.35,1042.26 565.35,1032.26 "/>
    <text style="fill: #000000;text-anchor:middle;font-size:12.7998;font-family:sanserif;font-style:normal;font-weight:normal" x="713.176" y="789">{ end with result}</text>
  </g>
  <g>
    <rect style="fill: #ffffff" x="509" y="1044.5" width="102.7" height="36" rx="20" ry="20"/>
    <rect style="fill: none; fill-opacity:0; stroke-width: 2; stroke: #000000" x="509" y="1044.5" width="102.7" height="36" rx="20" ry="20"/>
    <text style="fill: #000000;text-anchor:middle;font-size:12.8;font-family:sanserif;font-style:normal;font-weight:normal" x="560.35" y="1066.4">
      <tspan x="560.35" y="1066.4">Return result</tspan>
    </text>
  </g>
  <g>
    <polyline style="fill: none; fill-opacity:0; stroke-width: 2; stroke: #000000" points="560.35,1080.5 560.35,1122.75 571,1122.75 571,1160.52 "/>
    <polyline style="fill: none; fill-opacity:0; stroke-width: 2; stroke: #000000" points="566,1152.76 571,1162.76 576,1152.76 "/>
  </g>
  <g>
    <polyline style="fill: none; fill-opacity:0; stroke-width: 2; stroke: #000000" points="926,819 1155,819 1155,629 1379.53,629 "/>
    <polyline style="fill: none; fill-opacity:0; stroke-width: 2; stroke: #000000" points="1371.76,634 1381.76,629 1371.76,624 "/>
    <text style="fill: #000000;text-anchor:middle;font-size:12.7998;font-family:sanserif;font-style:normal;font-weight:normal" x="1045" y="795">{ error reported }</text>
  </g>
  <g>
    <polyline style="fill: none; fill-opacity:0; stroke-width: 2; stroke: #000000" points="402,391 402,336 89.575,336 89.575,350.028 "/>
    <polyline style="fill: none; fill-opacity:0; stroke-width: 2; stroke: #000000" points="84.575,342.264 89.575,352.264 94.575,342.264 "/>
    <text style="fill: #000000;text-anchor:middle;font-size:12.7998;font-family:sanserif;font-style:normal;font-weight:normal" x="213.002" y="303">{ srm url}</text>
  </g>
  <g>
    <rect style="fill: #ffffff" x="10" y="354.5" width="159.15" height="36" rx="20" ry="20"/>
    <rect style="fill: none; fill-opacity:0; stroke-width: 2; stroke: #000000" x="10" y="354.5" width="159.15" height="36" rx="20" ry="20"/>
    <text style="fill: #000000;text-anchor:middle;font-size:12.8;font-family:sanserif;font-style:normal;font-weight:normal" x="89.575" y="376.4">
      <tspan x="89.575" y="376.4">Check is SRMv2 SURL</tspan>
    </text>
  </g>
  <g>
    <polyline style="fill: none; fill-opacity:0; stroke-width: 2; stroke: #000000" points="89.575,390.5 89.575,623.5 90,623.5 90,852.028 "/>
    <polyline style="fill: none; fill-opacity:0; stroke-width: 2; stroke: #000000" points="85,844.264 90,854.264 95,844.264 "/>
  </g>
  <g>
    <polygon style="fill: #ffffff" points="70,876.5 90,856.5 110,876.5 90,896.5 "/>
    <polygon style="fill: none; fill-opacity:0; stroke-width: 2; stroke: #000000" points="70,876.5 90,856.5 110,876.5 90,896.5 "/>
  </g>
  <g>
    <polyline style="fill: none; fill-opacity:0; stroke-width: 2; stroke: #000000" points="110,876.5 1229,876.5 1229,647 1379.53,647 "/>
    <polyline style="fill: none; fill-opacity:0; stroke-width: 2; stroke: #000000" points="1371.76,652 1381.76,647 1371.76,642 "/>
    <text style="fill: #000000;text-anchor:middle;font-size:12.7998;font-family:sanserif;font-style:normal;font-weight:normal" x="160" y="863">{ not a SURL}</text>
  </g>
  <g>
    <rect style="fill: #ffffff" x="-6" y="1009.5" width="189.05" height="36" rx="20" ry="20"/>
    <rect style="fill: none; fill-opacity:0; stroke-width: 2; stroke: #000000" x="-6" y="1009.5" width="189.05" height="36" rx="20" ry="20"/>
    <text style="fill: #000000;text-anchor:middle;font-size:12.8;font-family:sanserif;font-style:normal;font-weight:normal" x="88.525" y="1031.4">
      <tspan x="88.525" y="1031.4">Check SRM access system</tspan>
    </text>
  </g>
  <g>
    <polyline style="fill: none; fill-opacity:0; stroke-width: 2; stroke: #000000" points="90,896.5 90,953 88.525,953 88.525,1005.03 "/>
    <polyline style="fill: none; fill-opacity:0; stroke-width: 2; stroke: #000000" points="83.525,997.264 88.525,1007.26 93.525,997.264 "/>
  </g>
  <g>
    <polyline style="fill: none; fill-opacity:0; stroke-width: 2; stroke: #000000" points="88.525,1045.5 95,1045.5 95,1080.5 504.528,1080.5 "/>
    <polyline style="fill: none; fill-opacity:0; stroke-width: 2; stroke: #000000" points="496.764,1085.5 506.764,1080.5 496.764,1075.5 "/>
    <text style="fill: #000000;text-anchor:middle;font-size:12.7998;font-family:sanserif;font-style:normal;font-weight:normal" x="216" y="1100">{ result of SRM request }</text>
  </g>
  <g>
    <polyline style="fill: none; fill-opacity:0; stroke-width: 2; stroke: #000000" points="183.05,1027.5 1254,1027.5 1254,665 1379.53,665 "/>
    <polyline style="fill: none; fill-opacity:0; stroke-width: 2; stroke: #000000" points="1371.76,670 1381.76,665 1371.76,660 "/>
    <text style="fill: #000000;text-anchor:middle;font-size:12.7998;font-family:sanserif;font-style:normal;font-weight:normal" x="294" y="1016">{ error while request }</text>
  </g>
  <g>
    <polygon style="fill: #ffffff" points="1410,942.5 1454.5,942.5 1466.5,954.5 1466.5,976.5 1410,976.5 "/>
    <polygon style="fill: none; fill-opacity:0; stroke-width: 2; stroke: #000000" points="1410,942.5 1454.5,942.5 1466.5,954.5 1466.5,976.5 1410,976.5 "/>
    <polyline style="fill: none; fill-opacity:0; stroke-width: 1; stroke: #000000" points="1454.5,942.5 1454.5,954.5 1466.5,954.5 "/>
    <text style="fill: #000000;text-anchor:start;font-size:12.8;font-family:monospace;font-style:normal;font-weight:normal" x="1417" y="967.4">
      <tspan x="1417" y="967.4">Error</tspan>
    </text>
  </g>
  <text style="fill: #000000;text-anchor:start;font-size:28.2222;font-family:sanserif;font-style:normal;font-weight:normal" x="395.24" y="-31.9998">
    <tspan x="395.24" y="-31.9998">Gfal_acess activity diagram</tspan>
  </text>
  <g>
    <rect style="fill: #ffffff" x="264.002" y="539" width="333.05" height="36" rx="20" ry="20"/>
    <rect style="fill: none; fill-opacity:0; stroke-width: 2; stroke: #000000" x="264.002" y="539" width="333.05" height="36" rx="20" ry="20"/>
    <text style="fill: #000000;text-anchor:middle;font-size:12.7998;font-family:sanserif;font-style:normal;font-weight:normal" x="430.527" y="560.9">
      <tspan x="430.527" y="560.9">Check the catalog responible for guid translation</tspan>
    </text>
  </g>
  <g>
    <polyline style="fill: none; fill-opacity:0; stroke-width: 2; stroke: #000000" points="422,411 422,475 430.527,475 430.527,534.528 "/>
    <polyline style="fill: none; fill-opacity:0; stroke-width: 2; stroke: #000000" points="425.527,526.764 430.527,536.764 435.527,526.764 "/>
    <text style="fill: #000000;text-anchor:middle;font-size:12.7998;font-family:sanserif;font-style:normal;font-weight:normal" x="416.263" y="445">{guid: url}</text>
  </g>
  <g>
    <polyline style="fill: none; fill-opacity:0; stroke-width: 2; stroke: #000000" points="920,537 920,539.5 1431.18,539.5 1431.18,624.528 "/>
    <polyline style="fill: none; fill-opacity:0; stroke-width: 2; stroke: #000000" points="1426.18,616.764 1431.18,626.764 1436.18,616.764 "/>
    <text style="fill: #000000;text-anchor:middle;font-size:12.7998;font-family:sanserif;font-style:normal;font-weight:normal" x="1165.59" y="509.5">{ not a url of a registered catalog}</text>
  </g>
  <g>
    <polygon style="fill: #ffffff" points="408,685 428,665 448,685 428,705 "/>
    <polygon style="fill: none; fill-opacity:0; stroke-width: 2; stroke: #000000" points="408,685 428,665 448,685 428,705 "/>
  </g>
  <g>
    <polyline style="fill: none; fill-opacity:0; stroke-width: 2; stroke: #000000" points="426,576.5 426,620.75 428,620.75 428,660.528 "/>
    <polyline style="fill: none; fill-opacity:0; stroke-width: 2; stroke: #000000" points="423,652.764 428,662.764 433,652.764 "/>
  </g>
  <g>
    <polyline style="fill: none; fill-opacity:0; stroke-width: 2; stroke: #000000" points="428,710.25 429,710.25 429,1044.5 504.528,1044.5 "/>
    <polyline style="fill: none; fill-opacity:0; stroke-width: 2; stroke: #000000" points="496.764,1049.5 506.764,1044.5 496.764,1039.5 "/>
    <text style="fill: #000000;text-anchor:middle;font-size:12.7998;font-family:sanserif;font-style:normal;font-weight:normal" x="342" y="753.25">{ error, not a valid guid }</text>
  </g>
  <g>
    <rect style="fill: #ffffff" x="501.269" y="670.5" width="204.35" height="36" rx="20" ry="20"/>
    <rect style="fill: none; fill-opacity:0; stroke-width: 2; stroke: #000000" x="501.269" y="670.5" width="204.35" height="36" rx="20" ry="20"/>
    <text style="fill: #000000;text-anchor:middle;font-size:12.7998;font-family:sanserif;font-style:normal;font-weight:normal" x="603.444" y="692.4">
      <tspan x="603.444" y="692.4">Convert the GUID to LFN link</tspan>
    </text>
  </g>
  <g>
    <polyline style="fill: none; fill-opacity:0; stroke-width: 2; stroke: #000000" points="448,685 474.635,685 474.635,688.5 496.797,688.5 "/>
    <polyline style="fill: none; fill-opacity:0; stroke-width: 2; stroke: #000000" points="489.033,693.5 499.033,688.5 489.033,683.5 "/>
  </g>
  <g>
    <polyline style="fill: none; fill-opacity:0; stroke-width: 2; stroke: #000000" points="705.619,688.5 730.31,688.5 730.31,616 750.528,616 "/>
    <polyline style="fill: none; fill-opacity:0; stroke-width: 2; stroke: #000000" points="742.764,621 752.764,616 742.764,611 "/>
  </g>
</svg>
